<svg width="256" height="256" viewBox="0 0 256 256" fill="none" xmlns="http://www.w3.org/2000/svg">
  <defs>
    <linearGradient id="shield" x1="36" y1="18" x2="220" y2="236" gradientUnits="userSpaceOnUse">
      <stop offset="0%" stop-color="#FFB15F"/>
      <stop offset="48%" stop-color="#FF8E2B"/>
      <stop offset="100%" stop-color="#E26000"/>
    </linearGradient>
    <linearGradient id="gear" x1="90" y1="82" x2="166" y2="176" gradientUnits="userSpaceOnUse">
      <stop offset="0%" stop-color="#FFFFFF"/>
      <stop offset="100%" stop-color="#FFF3E4"/>
    </linearGradient>
  </defs>
  <path d="M128 16L232 64V140C232 181 211 215 128 244C45 215 24 181 24 140V64L128 16Z" fill="url(#shield)"/>
  <circle cx="128" cy="124" r="42" stroke="url(#gear)" stroke-width="12"/>
  <g stroke="url(#gear)" stroke-linecap="round" stroke-width="12">
    <line x1="128" y1="62" x2="128" y2="76"/>
    <line x1="128" y1="172" x2="128" y2="186"/>
    <line x1="186" y1="124" x2="200" y2="124"/>
    <line x1="56" y1="124" x2="70" y2="124"/>
    <line x1="169" y1="83" x2="179" y2="73"/>
    <line x1="77" y1="175" x2="87" y2="165"/>
    <line x1="169" y1="165" x2="179" y2="175"/>
    <line x1="77" y1="73" x2="87" y2="83"/>
  </g>
  <circle cx="128" cy="124" r="12" fill="url(#gear)"/>
</svg>
